<svg xmlns="http://www.w3.org/2000/svg" viewBox="0 0 45.54 80.16"><defs><style>.cls-1{fill:#7c71b2;}.cls-1,.cls-12,.cls-2,.cls-3{stroke:#1d1d1b;}.cls-1,.cls-10,.cls-11,.cls-12,.cls-2,.cls-3,.cls-4,.cls-5,.cls-6,.cls-7,.cls-8,.cls-9{stroke-miterlimit:10;}.cls-2{fill:#6e6f70;}.cls-10,.cls-11,.cls-3,.cls-4,.cls-5,.cls-6,.cls-7,.cls-8,.cls-9{fill:none;}.cls-4{stroke:#5d3811;}.cls-10,.cls-11,.cls-4,.cls-5,.cls-6,.cls-7,.cls-8,.cls-9{stroke-width:2px;}.cls-5{stroke:#d81216;}.cls-6{stroke:#c97114;}.cls-7{stroke:#d8ca14;}.cls-8{stroke:#1ea73f;}.cls-9{stroke:#2f4899;}.cls-10{stroke:#6f4293;}.cls-11{stroke:#9f9f9f;}.cls-12{fill:#f8f7f7;}.cls-13{font-size:8px;font-family:MyriadPro-Regular, Myriad Pro;}.cls-13,.cls-14{fill:#1d1d1b;}</style></defs><g id="Calque_2" data-name="Calque 2"><g id="Calque_1-2" data-name="Calque 1"><path class="cls-1" d="M38.09.5A4.38,4.38,0,0,0,33.5,4.63V12.9h9.19V4.63A4.38,4.38,0,0,0,38.09.5Z"/><path class="cls-2" d="M28,.5a4.26,4.26,0,0,1,4.38,4.13V12.9H23.65V4.63A4.26,4.26,0,0,1,28,.5Z"/><line class="cls-3" x1="35.51" y1="12.9" x2="35.51" y2="30.41"/><line class="cls-3" x1="40.68" y1="12.9" x2="40.68" y2="34.38"/><line class="cls-3" x1="30.49" y1="12.9" x2="30.49" y2="30.41"/><line class="cls-3" x1="25.57" y1="12.9" x2="25.57" y2="34.38"/><line class="cls-4" x1="5.01" y1="54.17" x2="5.01" y2="36.11"/><line class="cls-5" x1="10.09" y1="54.17" x2="10.09" y2="36.11"/><line class="cls-6" x1="15.16" y1="54.17" x2="15.16" y2="36"/><line class="cls-7" x1="20.23" y1="72.46" x2="20.23" y2="17.58"/><line class="cls-8" x1="25.31" y1="54.17" x2="25.31" y2="36.11"/><line class="cls-9" x1="30.38" y1="54.17" x2="30.38" y2="36.11"/><line class="cls-10" x1="35.45" y1="54.17" x2="35.45" y2="36.11"/><line class="cls-11" x1="40.53" y1="54.17" x2="40.53" y2="36.11"/><rect class="cls-12" x="0.5" y="54.17" width="44.54" height="25.49"/><rect class="cls-12" x="2.85" y="69.14" width="3.5" height="8.04"/><rect class="cls-12" x="39.19" y="69.14" width="3.5" height="8.04"/><text class="cls-13" transform="translate(18.02 16.43)">S</text><path class="cls-14" d="M12.11,32.52l-4,1.32v-.57l2-.63c.55-.17,1-.32,1.51-.43h0c-.47-.11-1-.28-1.5-.46l-2-.68V30.5l4,1.44Z"/><path class="cls-14" d="M12,27.23a2.58,2.58,0,0,1,.19,1.07,1.89,1.89,0,0,1-2,2A2,2,0,0,1,8,28.19a2.15,2.15,0,0,1,.18-1l.43.12a1.85,1.85,0,0,0-.17.82,1.51,1.51,0,0,0,1.67,1.58,1.47,1.47,0,0,0,1.62-1.56,2.11,2.11,0,0,0-.16-.85Z"/><path class="cls-14" d="M12,23.88A2.54,2.54,0,0,1,12.17,25a1.88,1.88,0,0,1-2,2A2,2,0,0,1,8,24.83a2.22,2.22,0,0,1,.18-1l.43.13a1.85,1.85,0,0,0-.17.82,1.5,1.5,0,0,0,1.67,1.57,1.46,1.46,0,0,0,1.62-1.55,2.11,2.11,0,0,0-.16-.85Z"/><path class="cls-14" d="M6.86,31.17a3.94,3.94,0,0,1,.22,1.24,2,2,0,0,1-.54,1.51,2.05,2.05,0,0,1-1.5.57A2,2,0,0,1,3,32.3a2.41,2.41,0,0,1,.19-1l.42.13a2.15,2.15,0,0,0-.17.89A1.51,1.51,0,0,0,5,33.94a1.49,1.49,0,0,0,1.64-1.56,1.72,1.72,0,0,0-.11-.7H5.33v.82H4.91V31.17Z"/><path class="cls-14" d="M7,30.37H3V29.8L5,28.51a11.19,11.19,0,0,1,1.31-.73h0c-.54.05-1,.06-1.67.06H3v-.49H7v.53L5,29.15a12.11,12.11,0,0,1-1.34.75v0c.51,0,1,0,1.67,0H7Z"/><path class="cls-14" d="M3.05,26.42A7,7,0,0,1,3,25.32a2.32,2.32,0,0,1,.51-1.64,1.85,1.85,0,0,1,1.45-.57,2.12,2.12,0,0,1,1.57.58,2.48,2.48,0,0,1,.58,1.79,8.2,8.2,0,0,1-.05.94Zm3.57-.52a2.64,2.64,0,0,0,0-.52,1.56,1.56,0,0,0-1.71-1.73,1.45,1.45,0,0,0-1.56,1.64,2.94,2.94,0,0,0,.05.61Z"/><path class="cls-14" d="M17,31.14a3.57,3.57,0,0,1,.22,1.24,1.89,1.89,0,0,1-2,2.07,2,2,0,0,1-2.08-2.19,2.57,2.57,0,0,1,.18-1l.43.12a2.06,2.06,0,0,0-.17.89,1.51,1.51,0,0,0,1.62,1.63,1.48,1.48,0,0,0,1.63-1.56,1.67,1.67,0,0,0-.11-.69h-1.2v.82h-.42V31.14Z"/><path class="cls-14" d="M17.18,30.34h-4v-.57l2-1.3a11.09,11.09,0,0,1,1.32-.72v0c-.54.05-1,.06-1.66.06H13.14V27.3h4v.53l-2,1.28a12.35,12.35,0,0,1-1.35.76v0c.51,0,1,0,1.67,0h1.72Z"/><path class="cls-14" d="M13.19,26.39a8.88,8.88,0,0,1-.08-1.11,2.33,2.33,0,0,1,.5-1.64,1.87,1.87,0,0,1,1.46-.57,2.2,2.2,0,0,1,1.57.58,2.55,2.55,0,0,1,.58,1.79,8.52,8.52,0,0,1,0,.95Zm3.58-.52a4,4,0,0,0,0-.53,1.56,1.56,0,0,0-1.72-1.72,1.44,1.44,0,0,0-1.56,1.64,3,3,0,0,0,.06.61Z"/></g></g></svg>