<svg xmlns="http://www.w3.org/2000/svg" viewBox="0 0 167.03 86.3"><defs><style>.cls-1,.cls-5{isolation:isolate;font-family:ArialMT, Arial;}.cls-1{font-size:12px;}.cls-2{fill:none;}.cls-2,.cls-3,.cls-4{stroke:#000;stroke-width:2px;}.cls-2,.cls-4{stroke-linecap:square;}.cls-3,.cls-4{fill-opacity:0;}.cls-5{font-size:11px;}</style></defs><g id="Calque_2" data-name="Calque 2"><g id="Calque_1-2" data-name="Calque 1"><text class="cls-1" transform="translate(0 10.3)">POWER</text><line class="cls-2" x1="22.67" y1="18.3" x2="22.67" y2="45.3"/><circle class="cls-3" cx="22.67" cy="15.3" r="3"/><line class="cls-2" x1="22.67" y1="45.3" x2="92.67" y2="45.3"/><path class="cls-4" d="M64.67,37.3v16m0-8-15,8v-16l15,8"/><path class="cls-4" d="M60.67,34.3l8-8m1-1-4,2,2,2,2-4-4,2"/><path class="cls-4" d="M66.67,41.3l8-8m1-1-4,2,2,2,2-4-4,2"/><line class="cls-2" x1="82.67" y1="45.3" x2="97.67" y2="45.3"/><line class="cls-2" x1="137.67" y1="45.3" x2="152.67" y2="45.3"/><path class="cls-4" d="M97.67,45.3h2l3-7,6,14,6-14,6,14,6-14,6,14,3-7h2"/><text class="cls-5" transform="translate(105.8 31.3)">47 Ω</text><line class="cls-2" x1="152.67" y1="45.3" x2="152.67" y2="73.3"/><line class="cls-2" x1="139.3" y1="73.3" x2="166.03" y2="73.3"/><line class="cls-2" x1="144.32" y1="79.3" x2="161.02" y2="79.3"/><line class="cls-2" x1="149.33" y1="85.3" x2="156.01" y2="85.3"/></g></g></svg>