<svg xmlns="http://www.w3.org/2000/svg" viewBox="0 0 207.03 86.3"><defs><style>.cls-1,.cls-7{fill:none;}.cls-1,.cls-2,.cls-5,.cls-7,.cls-8,.cls-9{stroke:#000;}.cls-1,.cls-2,.cls-7,.cls-8{stroke-linecap:square;}.cls-1,.cls-2,.cls-5,.cls-8,.cls-9{stroke-width:2px;}.cls-2,.cls-5{fill-opacity:0;}.cls-3,.cls-4{isolation:isolate;font-family:ArialMT, Arial;}.cls-3{font-size:11px;}.cls-4{font-size:12px;}.cls-6{letter-spacing:-0.04em;}.cls-7{stroke-width:3px;}</style></defs><g id="Calque_2" data-name="Calque 2"><g id="Calque_1-2" data-name="Calque 1"><line class="cls-1" x1="192.67" y1="45.3" x2="192.67" y2="73.3"/><line class="cls-1" x1="112.67" y1="45.3" x2="132.67" y2="45.3"/><line class="cls-1" x1="172.67" y1="45.3" x2="192.67" y2="45.3"/><path class="cls-2" d="M132.67,45.3h2l3-7,6,14,6-14,6,14,6-14,6,14,3-7h2"/><text class="cls-3" transform="translate(141.11 31.3)">1 kΩ</text><text class="cls-4" transform="translate(0 10.3)">POWER</text><line class="cls-1" x1="22.67" y1="18.3" x2="22.67" y2="45.3"/><circle class="cls-5" cx="22.67" cy="15.3" r="3"/><text class="cls-4" transform="translate(90.66 10.3)">SIGNA<tspan class="cls-6" x="37.34" y="0">L</tspan></text><line class="cls-1" x1="112.67" y1="18.3" x2="112.67" y2="45.3"/><circle class="cls-5" cx="112.67" cy="15.3" r="3"/><line class="cls-1" x1="112.67" y1="45.3" x2="85.67" y2="45.3"/><line class="cls-1" x1="59.67" y1="45.3" x2="22.67" y2="45.3"/><line class="cls-7" x1="80.67" y1="30.8" x2="64.67" y2="30.8"/><line class="cls-1" x1="85.67" y1="45.3" x2="76.67" y2="30.8"/><line class="cls-1" x1="68.67" y1="30.8" x2="59.67" y2="45.3"/><circle class="cls-5" cx="72.67" cy="35.3" r="16"/><path class="cls-2" d="M100.67,15.3l-8,8m-1,1,2-4,2,2-4,2,2-4"/><path class="cls-2" d="M94.67,9.3l-8,8m-1,1,2-4,2,2-4,2,2-4"/><path class="cls-8" d="M65.67,37.3l2,4-7,1,4-6,1,2"/><circle class="cls-9" cx="112.67" cy="45.3" r="2"/><line class="cls-1" x1="179.3" y1="73.3" x2="206.03" y2="73.3"/><line class="cls-1" x1="184.32" y1="79.3" x2="201.02" y2="79.3"/><line class="cls-1" x1="189.33" y1="85.3" x2="196.01" y2="85.3"/></g></g></svg>