<svg xmlns="http://www.w3.org/2000/svg" viewBox="0 0 139.77 87.75"><defs><style>.cls-1{fill:#1d1d1b;}.cls-2{fill:#aad4c8;}</style></defs><g id="Calque_2" data-name="Calque 2"><g id="Calque_1-2" data-name="Calque 1"><path class="cls-1" d="M42.62,87.75H34.3V65.37q0-3.63.31-8H34.4a38.73,38.73,0,0,1-1.17,5L24.47,87.75H17.58L8.66,62.58a48.12,48.12,0,0,1-1.17-5.22H7.25q.35,5.53.34,9.7V87.75H0V50.34H12.34L20,72.51a31.45,31.45,0,0,1,1.33,5.35h.16A54.51,54.51,0,0,1,23,72.46l7.64-22.12h12Z"/><path class="cls-2" d="M84,87.75H74.83l-2.66-8.32H58.87l-2.64,8.32H47.1L60.72,50.34h10ZM70.24,73l-4-12.57c-.29-.94-1.14-1.19-1.48-.11L60.67,73Z"/><path class="cls-1" d="M111.11,57.2H100.44V87.75H92V57.2H81.38V50.34h29.73Z"/><path class="cls-1" d="M139.77,87.74H116.14V50.34h23.63V57.2h-15.2v8.32h12.07v6.84H124.57v8.55h15.2Z"/><path class="cls-2" d="M83.15,48.06h3.49a1.91,1.91,0,0,0,1.91-1.91V42.91a18,18,0,0,0,7.3-2.65,10.41,10.41,0,0,0,5-8.9,8.85,8.85,0,0,0-2-6q-3.31-3.94-10.33-4.93V13.83a10.75,10.75,0,0,1,2.38,1.57,2.48,2.48,0,0,0,1.63.59,3.36,3.36,0,0,0,1.19-.35h0l3.92-2.46a1.54,1.54,0,0,0,.81-1.29A1.42,1.42,0,0,0,98,10.78a15.75,15.75,0,0,0-9.43-5.17V1.91A1.92,1.92,0,0,0,86.64,0H83.15a1.91,1.91,0,0,0-1.91,1.91v3.6a17.22,17.22,0,0,0-4.89,1.38q-7,3.21-6.93,9.59A9.3,9.3,0,0,0,71.3,22c2,2.74,5.36,4.45,9.94,5.16V35.4a14.1,14.1,0,0,1-5.61-3.91,1.86,1.86,0,0,0-1.55-.75,3.83,3.83,0,0,0-1,.3h0l-3.56,2.09A1.5,1.5,0,0,0,69,35.55a17.71,17.71,0,0,0,3.73,3.71,18.47,18.47,0,0,0,8.52,3.65v3.24A1.9,1.9,0,0,0,83.15,48.06Zm5.4-20c1.88.59,2.84,1.69,2.82,3.31a3.91,3.91,0,0,1-2.06,3.49,5.51,5.51,0,0,1-.76.4ZM78.94,16.5a3,3,0,0,1,2-2.74l.27-.11v5.83A3.1,3.1,0,0,1,78.94,16.5Z"/><path class="cls-1" d="M29.16,41.58a24.51,24.51,0,0,1-10.69,2q-8.61,0-13.54-5.06T0,25q0-9,5.54-14.55T19.93,4.89a26.91,26.91,0,0,1,9.23,1.38v8.11a16.41,16.41,0,0,0-8.55-2.24,11.35,11.35,0,0,0-8.51,3.31q-3.22,3.32-3.23,9a12.08,12.08,0,0,0,3.05,8.65,10.76,10.76,0,0,0,8.22,3.22,17.52,17.52,0,0,0,9-2.4Z"/><path class="cls-1" d="M68.57,42.92H59.39l-2.66-8.33H43.43l-2.64,8.33H31.66L45.28,5.51h10ZM54.8,28.13l-4-12.58a16.56,16.56,0,0,1-.62-3.36H50a14.83,14.83,0,0,1-.65,3.26L45.23,28.13Z"/><path class="cls-1" d="M128.18,42.92h-8.45l4.72-15.24H111.61V42.92h-8.43V5.51h8.43V20.43H126.7l4.62-14.92h8.45Z"/></g></g></svg>