G04 PROTEUS GERBER X2 FILE*
%TF.GenerationSoftware,Labcenter,Proteus,8.15-SP1-Build34318*%
%TF.CreationDate,2023-05-02T07:01:26+00:00*%
%TF.FileFunction,Copper,L2,Bot*%
%TF.FilePolarity,Positive*%
%TF.Part,Single*%
%TF.SameCoordinates,{219bb86b-492c-4ab0-8d1f-870129ed5977}*%
%FSLAX45Y45*%
%MOMM*%
G01*
%TA.AperFunction,Conductor*%
%ADD10C,0.762000*%
%ADD11C,0.508000*%
%AMDIL002*
4,1,8,
-0.762000,0.965200,-0.457200,1.270000,0.457200,1.270000,0.762000,0.965200,0.762000,-0.965200,
0.457200,-1.270000,-0.457200,-1.270000,-0.762000,-0.965200,-0.762000,0.965200,
0*%
%TA.AperFunction,ComponentPad*%
%ADD12DIL002*%
%ADD13C,1.524000*%
%AMDIL004*
4,1,8,
-1.270000,0.457200,-0.965200,0.762000,0.965200,0.762000,1.270000,0.457200,1.270000,-0.457200,
0.965200,-0.762000,-0.965200,-0.762000,-1.270000,-0.457200,-1.270000,0.457200,
0*%
%ADD14DIL004*%
%ADD15C,2.032000*%
%TA.AperFunction,ComponentPad*%
%ADD16R,2.032000X2.032000*%
%TA.AperFunction,OtherPad,Unknown*%
%ADD17R,2.032000X2.032000*%
%ADD18C,2.032000*%
%ADD19C,3.100000*%
%TA.AperFunction,NonConductor*%
%ADD70C,0.381000*%
%TD.AperFunction*%
D10*
X+381000Y-1624000D02*
X+571500Y-1433500D01*
X+571500Y-1243000D01*
X+681000Y-1624000D02*
X+970000Y-1624000D01*
X+1079500Y-1243000D02*
X+1079500Y-1433500D01*
X+1270000Y-1624000D01*
X-2413000Y+1170000D02*
X-2413000Y+789000D01*
X-2159000Y+789000D02*
X-2159000Y+1170000D01*
X-1905000Y+1170000D02*
X-1905000Y+789000D01*
X-1651000Y+1170000D02*
X-1651000Y+789000D01*
X-1397000Y+1170000D02*
X-1397000Y+789000D01*
X-1143000Y+1170000D02*
X-1143000Y+789000D01*
X-889000Y+1170000D02*
X-889000Y+789000D01*
X-635000Y+1170000D02*
X-635000Y+789000D01*
X-381000Y+789000D02*
X-381000Y-182601D01*
X+127000Y-690601D01*
X+127000Y-735000D01*
X-2921000Y-100000D02*
X-2921000Y-481000D01*
X-2921000Y-1497000D02*
X-2621000Y-1497000D01*
X-2603500Y-1479500D01*
X-2413000Y-1289000D01*
X-2413000Y-735000D01*
X-2159000Y-735000D02*
X-2159000Y-1052500D01*
X-1905000Y-735000D02*
X-1905000Y-1052500D01*
X-2413000Y+1932000D02*
X-2159000Y+1932000D01*
X-1905000Y+1932000D01*
X-1651000Y+1932000D01*
X-1397000Y+1932000D01*
X-1143000Y+1932000D01*
X-889000Y+1932000D01*
X-635000Y+1932000D01*
X-635000Y+1678000D02*
X-889000Y+1678000D01*
X-1143000Y+1678000D01*
X-1397000Y+1678000D01*
X-1651000Y+1678000D01*
X-1905000Y+1678000D01*
X-2159000Y+1678000D01*
X-2413000Y+1678000D01*
X-2921000Y+154000D02*
X-2939621Y+154000D01*
X-3117647Y-24026D01*
X-3117647Y-665353D01*
X-2603500Y-1179500D01*
X-2921000Y-100000D02*
X-2891492Y-100000D01*
X-2667000Y+124492D01*
X-2667000Y+1424000D01*
X-2413000Y+1678000D01*
X-2921000Y+154000D02*
X-2921000Y+1462940D01*
X-2451940Y+1932000D01*
X-2413000Y+1932000D01*
X-635000Y+1678000D02*
X-381000Y+1424000D01*
X-381000Y+789000D01*
X+635000Y-735000D02*
X+635000Y-1179500D01*
X+571500Y-1243000D01*
X+889000Y-735000D02*
X+889000Y-1052500D01*
X+1079500Y-1243000D01*
X+2730500Y-2132000D02*
X+2984500Y-2132000D01*
X+2476500Y-2132000D02*
X+2730500Y-2132000D01*
X+2730500Y-2386000D02*
X+3048000Y-2386000D01*
X+3302000Y-2132000D01*
X+2159000Y-2132000D02*
X+2413000Y-2386000D01*
X+2730500Y-2386000D01*
X+1841500Y-2132000D02*
X+2349500Y-2640000D01*
X+2730500Y-2640000D01*
X+3111500Y-2640000D01*
X+3619500Y-2132000D01*
X+1524000Y-2132000D02*
X+2286000Y-2894000D01*
X+2730500Y-2894000D01*
X+3175000Y-2894000D01*
X+3937000Y-2132000D01*
X-508000Y-2640000D02*
X-127000Y-2640000D01*
X-508000Y-2132000D02*
X-127000Y-2132000D01*
X-508000Y-1878000D02*
X-127000Y-1878000D01*
X-508000Y-1624000D02*
X-127000Y-1624000D01*
X-508000Y-1370000D02*
X-219478Y-1370000D01*
X+381000Y-769522D01*
X+381000Y-735000D01*
X+381000Y-769522D02*
X+381000Y-1306501D01*
X+190500Y-1497001D01*
X+190500Y-1687500D01*
X+317500Y-1814500D01*
X+490500Y-1814500D01*
X+681000Y-1624000D01*
X-508000Y-1116000D02*
X-205899Y-1116000D01*
X+127000Y-783101D01*
X+127000Y-735000D01*
X-508000Y-2894000D02*
X-624359Y-2777641D01*
X-666288Y-2777641D01*
X-698500Y-2745429D01*
X-698500Y-1286578D01*
X-527922Y-1116000D01*
X-508000Y-1116000D01*
X-508000Y-2386000D02*
X-127000Y-2386000D01*
X+1651000Y+789000D02*
X+1651000Y+1106500D01*
X+2984500Y-1116000D02*
X+3302000Y-1116000D01*
X+3619500Y-1116000D01*
X+3937000Y-1116000D01*
X+381000Y-735000D02*
X+381000Y-724331D01*
X-127000Y+789000D02*
X-127000Y-216331D01*
X+381000Y-724331D01*
X+2667000Y+1106500D02*
X+2984500Y+1106500D01*
X+2984500Y+789000D01*
X+127000Y+789000D02*
X+127000Y+799310D01*
X-127000Y+789000D02*
X-127000Y+852500D01*
X+127000Y+1106500D01*
X-635000Y+1932000D02*
X-507999Y+1932000D01*
X-127000Y+1551001D01*
X-127000Y+852500D01*
X+127000Y+2059000D02*
X+127000Y+1741500D01*
X+127000Y+1424000D01*
X+127000Y+1106500D01*
D11*
X+127000Y+789000D02*
X+279301Y+941301D01*
X+279301Y+1195301D01*
X+1143000Y+2059000D01*
X+381000Y+789000D02*
X+381000Y+979500D01*
X+1143000Y+1741500D01*
X+635000Y+789000D02*
X+635000Y+916000D01*
X+1143000Y+1424000D01*
X+889000Y+789000D02*
X+889000Y+852500D01*
X+1143000Y+1106500D01*
X+1143000Y-735000D02*
X+1524000Y-1116000D01*
X+1397000Y-735000D02*
X+1778000Y-1116000D01*
X+1841500Y-1116000D01*
X+1905000Y-735000D02*
X+2095500Y-925500D01*
X+2286000Y-925500D01*
X+2476500Y-1116000D01*
X+1651000Y-735000D02*
X+1651000Y-798500D01*
X+1815072Y-962572D01*
X+2005572Y-962572D01*
X+2159000Y-1116000D01*
D10*
X+2984500Y-1116000D02*
X+2330686Y-1769814D01*
X+1115814Y-1769814D01*
X+970000Y-1624000D01*
X+2984500Y-227000D02*
X+878331Y-227000D01*
X+457200Y-648131D01*
X+381000Y-735000D01*
D11*
X+2413000Y+789000D02*
X+2730500Y+471500D01*
X+3102000Y+471500D01*
X+3356000Y+725500D01*
X+3419500Y+725500D01*
D10*
X+3419500Y+1487500D02*
X+1206500Y+1487500D01*
X+1143000Y+1424000D01*
X+1143000Y+1741500D02*
X+3419500Y+1741500D01*
X+1143000Y+1106500D02*
X+1333500Y+1297000D01*
X+3356000Y+1297000D01*
X+3419500Y+1233500D01*
D11*
X+2159000Y+789000D02*
X+2159000Y+925771D01*
X+2245229Y+1012000D01*
X+2470000Y+1012000D01*
X+2870000Y+612000D01*
X+3070000Y+612000D01*
X+3220000Y+762000D01*
X+3220000Y+862000D01*
X+3337500Y+979500D01*
X+3419500Y+979500D01*
D10*
X+3419500Y+1995500D02*
X+1206500Y+1995500D01*
X+1143000Y+2059000D01*
X+2413000Y-735000D02*
X+3102000Y-735000D01*
X+3619500Y-217500D01*
X+3619500Y+381000D01*
X+3529000Y+471500D01*
X+3419500Y+471500D01*
X+3419500Y+217500D02*
X+3419500Y-163500D01*
X+3075000Y-508000D01*
X+2285999Y-508000D01*
X+2159000Y-634999D01*
X+2159000Y-735000D01*
D12*
X-2159000Y-1052500D03*
X-1905000Y-1052500D03*
D13*
X+381000Y-1624000D03*
X+681000Y-1624000D03*
X+1270000Y-1624000D03*
X+970000Y-1624000D03*
X-2603500Y-1479500D03*
X-2603500Y-1179500D03*
D14*
X-2921000Y-100000D03*
X-2921000Y+154000D03*
D15*
X-2921000Y-1497000D03*
X-2921000Y-481000D03*
D12*
X-635000Y+1170000D03*
X-889000Y+1170000D03*
X-1143000Y+1170000D03*
X-1397000Y+1170000D03*
X-1651000Y+1170000D03*
X-1905000Y+1170000D03*
X-2159000Y+1170000D03*
X-2413000Y+1170000D03*
D16*
X-2413000Y-735000D03*
D12*
X-2159000Y-735000D03*
X-1905000Y-735000D03*
X-1651000Y-735000D03*
X-1397000Y-735000D03*
X-1143000Y-735000D03*
X-889000Y-735000D03*
X-635000Y-735000D03*
X-381000Y-735000D03*
X-127000Y-735000D03*
X+127000Y-735000D03*
X+381000Y-735000D03*
X+635000Y-735000D03*
X+889000Y-735000D03*
X+1143000Y-735000D03*
X+1397000Y-735000D03*
X+1651000Y-735000D03*
X+1905000Y-735000D03*
X+2159000Y-735000D03*
X+2413000Y-735000D03*
X+2413000Y+789000D03*
X+2159000Y+789000D03*
X+1905000Y+789000D03*
X+1651000Y+789000D03*
X+1397000Y+789000D03*
X+1143000Y+789000D03*
X+889000Y+789000D03*
X+635000Y+789000D03*
X+381000Y+789000D03*
X+127000Y+789000D03*
X-127000Y+789000D03*
X-381000Y+789000D03*
X-635000Y+789000D03*
X-889000Y+789000D03*
X-1143000Y+789000D03*
X-1397000Y+789000D03*
X-1651000Y+789000D03*
X-1905000Y+789000D03*
X-2159000Y+789000D03*
X-2413000Y+789000D03*
D15*
X+571500Y-1243000D03*
X+1079500Y-1243000D03*
D17*
X-635000Y+1678000D03*
X-635000Y+1932000D03*
X-889000Y+1678000D03*
X-889000Y+1932000D03*
X-1143000Y+1678000D03*
X-1143000Y+1932000D03*
X-1397000Y+1678000D03*
X-1397000Y+1932000D03*
X-1651000Y+1678000D03*
X-1651000Y+1932000D03*
X-1905000Y+1678000D03*
X-1905000Y+1932000D03*
X-2159000Y+1678000D03*
X-2159000Y+1932000D03*
X-2413000Y+1678000D03*
X-2413000Y+1932000D03*
D15*
X+1524000Y-1116000D03*
X+1524000Y-2132000D03*
X+3937000Y-2132000D03*
X+3937000Y-1116000D03*
X+2159000Y-1116000D03*
X+2159000Y-2132000D03*
X+3302000Y-2132000D03*
X+3302000Y-1116000D03*
X+1841500Y-1116000D03*
X+1841500Y-2132000D03*
X+3619500Y-2132000D03*
X+3619500Y-1116000D03*
X+1651000Y+1106500D03*
X+2667000Y+1106500D03*
X+2984500Y+789000D03*
X+2984500Y-227000D03*
X+2476500Y-1116000D03*
X+2476500Y-2132000D03*
X+2984500Y-2132000D03*
X+2984500Y-1116000D03*
D14*
X-508000Y-1116000D03*
X-508000Y-1370000D03*
X-508000Y-1624000D03*
X-508000Y-1878000D03*
X-508000Y-2132000D03*
X-508000Y-2386000D03*
X-508000Y-2640000D03*
X-508000Y-2894000D03*
D18*
X+2730500Y-2132000D03*
X+2730500Y-2386000D03*
X+2730500Y-2640000D03*
X+2730500Y-2894000D03*
X-127000Y-2640000D03*
X-127000Y-2132000D03*
X-127000Y-1878000D03*
X-127000Y-1624000D03*
X-127000Y-2386000D03*
X+2984500Y+1106500D03*
D14*
X+3419500Y+217500D03*
X+3419500Y+471500D03*
X+3419500Y+725500D03*
X+3419500Y+979500D03*
X+3419500Y+1233500D03*
X+3419500Y+1487500D03*
X+3419500Y+1741500D03*
X+3419500Y+1995500D03*
D15*
X+1143000Y+2059000D03*
X+127000Y+2059000D03*
X+1143000Y+1741500D03*
X+127000Y+1741500D03*
X+1143000Y+1424000D03*
X+127000Y+1424000D03*
X+1143000Y+1106500D03*
X+127000Y+1106500D03*
D19*
X-3080000Y+2062000D03*
X+3820000Y-2838000D03*
X-2980000Y-2838000D03*
X+3820000Y+2062000D03*
D70*
X-2730500Y-100000D02*
X-2603500Y-100000D01*
X-2667000Y-163500D02*
X-2667000Y-36500D01*
X-3175000Y+217500D02*
X-3175000Y+90500D01*
X-876300Y-1116000D02*
X-749300Y-1116000D01*
X-812800Y-1179500D02*
X-812800Y-1052500D01*
X+3746500Y+190500D02*
X+3810000Y+254000D01*
X+3746500Y+190500D02*
X+3873500Y+190500D01*
X+3810000Y+254000D01*
X+3810000Y+190500D02*
X+3810000Y+127000D01*
X-571500Y+1447800D02*
X-635000Y+1447800D01*
X-635000Y+1511300D02*
X-698500Y+1447800D01*
X-635000Y+1384300D01*
X-635000Y+1511300D01*
M02*
