G04 PROTEUS GERBER X2 FILE*
%TF.GenerationSoftware,Labcenter,Proteus,8.15-SP1-Build34318*%
%TF.CreationDate,2023-05-24T13:03:38+00:00*%
%TF.FileFunction,Copper,L1,Bot*%
%TF.FilePolarity,Positive*%
%TF.Part,Single*%
%TF.SameCoordinates,{c27d38b2-b7bb-4c40-b47e-9469ff27c1c2}*%
%FSLAX45Y45*%
%MOMM*%
G01*
%TA.AperFunction,Conductor*%
%ADD10C,0.762000*%
%TA.AperFunction,OtherPad,Unknown*%
%ADD11R,2.032000X2.032000*%
%AMDIL002*
4,1,8,
-1.270000,0.457200,-0.965200,0.762000,0.965200,0.762000,1.270000,0.457200,1.270000,-0.457200,
0.965200,-0.762000,-0.965200,-0.762000,-1.270000,-0.457200,-1.270000,0.457200,
0*%
%TA.AperFunction,ComponentPad*%
%ADD12DIL002*%
%TA.AperFunction,ComponentPad*%
%ADD13C,2.032000*%
%ADD14C,1.524000*%
%AMDIL005*
4,1,8,
-0.762000,0.965200,-0.457200,1.270000,0.457200,1.270000,0.762000,0.965200,0.762000,-0.965200,
0.457200,-1.270000,-0.457200,-1.270000,-0.762000,-0.965200,-0.762000,0.965200,
0*%
%ADD15DIL005*%
%TA.AperFunction,OtherPad,Unknown*%
%ADD16C,3.100000*%
%TA.AperFunction,NonConductor*%
%ADD17C,0.381000*%
%TD.AperFunction*%
D10*
X-698500Y-254000D02*
X-381000Y-254000D01*
X-698500Y-508000D02*
X-381000Y-508000D01*
X-698500Y-762000D02*
X-381000Y-762000D01*
X-698500Y-1016000D02*
X-381000Y-1016000D01*
X+381000Y-1016000D02*
X+698500Y-1016000D01*
X+698500Y-762000D02*
X+381000Y-762000D01*
X+381000Y-508000D02*
X+698500Y-508000D01*
X+698500Y-254000D02*
X+381000Y-254000D01*
X-381000Y+0D02*
X-372582Y+0D01*
X-127000Y+245582D01*
X-127000Y+1524000D01*
X+127000Y+1524000D02*
X+127000Y+211242D01*
X+338242Y+0D01*
X+381000Y+0D01*
X-1206500Y+381000D02*
X-1079500Y+254000D01*
X-698500Y+254000D01*
X-381000Y+254000D02*
X-698500Y+254000D01*
X+381000Y+1016000D02*
X+635000Y+1270000D01*
X+635000Y+1524000D01*
X+1206500Y-254000D02*
X+1206500Y-508000D01*
X+1206500Y-762000D01*
X+1206500Y-1016000D01*
X-1206500Y-762000D02*
X-1206500Y-508000D01*
X-1206500Y-1016000D02*
X-1206500Y-762000D01*
X+381000Y+762000D02*
X+401951Y+762000D01*
X+889000Y+1249049D01*
X+889000Y+1524000D01*
X+381000Y+254000D02*
X+762000Y+254000D01*
X+952500Y+254000D01*
X+1143000Y+63500D01*
X+1143000Y+363500D02*
X+1143000Y+762000D01*
X+1143000Y+363500D02*
X+1290952Y+215548D01*
X+1290952Y-169548D01*
X+1206500Y-254000D01*
X+381000Y+508000D02*
X+508000Y+508000D01*
X+762000Y+762000D01*
X+1062000Y+1062000D01*
X+1143000Y+1062000D01*
X-1206500Y+81000D02*
X-1125500Y+0D01*
X-381000Y+0D01*
X-698500Y+1270000D02*
X-698500Y+1397000D01*
X-379860Y+1715640D01*
X-24375Y+1715640D01*
X+127000Y+1564265D01*
X+127000Y+1524000D01*
X-1206500Y-508000D02*
X-1206500Y-254000D01*
X-1206500Y+81000D01*
X+952500Y-254000D02*
X+952500Y-508000D01*
X+952500Y-762000D01*
X+952500Y-914400D01*
X+952500Y-1016000D01*
X-952500Y-1016000D02*
X-952500Y-762000D01*
X-952500Y-508000D01*
X-952500Y-254000D01*
X-127000Y-1460500D02*
X-127000Y-1336527D01*
X-35073Y-1244600D01*
X+763911Y-1244600D01*
X+952500Y-1056011D01*
X+952500Y-1016000D01*
X-952500Y-1016000D02*
X-952500Y-1168400D01*
X-660400Y-1460500D01*
X-127000Y-1460500D01*
X-1206500Y-1016000D02*
X-1206500Y-1143000D01*
X-698030Y-1651470D01*
X-33729Y-1651470D01*
X+127000Y-1490741D01*
X+127000Y-1460500D01*
X+800938Y-1460500D01*
X+1206500Y-1054938D01*
X+1206500Y-1016000D01*
D11*
X-698500Y-254000D03*
X-698500Y-508000D03*
X-698500Y-762000D03*
X-698500Y-1016000D03*
X+698500Y-1016000D03*
X+698500Y-762000D03*
X+698500Y-508000D03*
X+698500Y-254000D03*
X+1206500Y-254000D03*
D12*
X-381000Y+1016000D03*
X-381000Y+762000D03*
X-381000Y+508000D03*
X-381000Y+254000D03*
X-381000Y+0D03*
X-381000Y-254000D03*
X-381000Y-508000D03*
X-381000Y-762000D03*
X-381000Y-1016000D03*
X+381000Y-1016000D03*
X+381000Y-762000D03*
X+381000Y-508000D03*
X+381000Y-254000D03*
X+381000Y+0D03*
X+381000Y+254000D03*
X+381000Y+508000D03*
X+381000Y+762000D03*
X+381000Y+1016000D03*
D13*
X+762000Y+762000D03*
X+762000Y+254000D03*
D14*
X+1143000Y+1062000D03*
X+1143000Y+762000D03*
X+1143000Y+63500D03*
X+1143000Y+363500D03*
X-1206500Y+381000D03*
X-1206500Y+81000D03*
D13*
X-698500Y+254000D03*
X-698500Y+1270000D03*
D15*
X+127000Y+1524000D03*
X-127000Y+1524000D03*
X+889000Y+1524000D03*
X+635000Y+1524000D03*
D11*
X+1206500Y-508000D03*
X+1206500Y-762000D03*
X+952500Y-1016000D03*
X+1206500Y-1016000D03*
X-1206500Y-254000D03*
X-1206500Y-508000D03*
X-1206500Y-762000D03*
X-1206500Y-1016000D03*
D16*
X-1250000Y-1500000D03*
X+1250000Y-1500000D03*
X-1250000Y+2000000D03*
X+1250000Y+2000000D03*
D11*
X+952500Y-762000D03*
X+952500Y-508000D03*
X+952500Y-254000D03*
X-952500Y-1016000D03*
X-952500Y-762000D03*
X-952500Y-508000D03*
X-952500Y-254000D03*
D15*
X-127000Y-1460500D03*
X+127000Y-1460500D03*
D17*
X+127000Y+1905000D02*
X+127000Y+1778000D01*
X+63500Y+1841500D02*
X+190500Y+1841500D01*
X+952500Y+1905000D02*
X+825500Y+1905000D01*
X+952500Y+1905000D02*
X+952500Y+1778000D01*
X+825500Y+1778000D02*
X+952500Y+1778000D01*
X+635000Y+1905000D02*
X+571500Y+1841500D01*
X+635000Y+1778000D01*
X+698500Y+1778000D01*
X+698500Y+1905000D01*
X+635000Y+1905000D01*
X-292100Y-1219200D02*
X-292100Y-1346200D01*
X-355600Y-1282700D02*
X-228600Y-1282700D01*
M02*
